<mxfile host="app.diagrams.net" modified="2023-06-14T20:39:43.845Z" agent="Mozilla/5.0 (Macintosh; Intel Mac OS X 10_15_7) AppleWebKit/605.1.15 (KHTML, like Gecko) Version/16.5 Safari/605.1.15" etag="nc7N2ivxkVIYFdhA3-NR" version="21.4.0" type="github">
  <diagram name="Page-1" id="gf-BKuZjwV0Vpxad8Ld4">
    <mxGraphModel dx="1078" dy="732" grid="1" gridSize="10" guides="1" tooltips="1" connect="1" arrows="1" fold="1" page="1" pageScale="1" pageWidth="1169" pageHeight="827" math="0" shadow="0">
      <root>
        <mxCell id="0" />
        <mxCell id="1" parent="0" />
        <mxCell id="ibBu3tWBld4mr-qCmF8P-2" value="" style="rounded=1;arcSize=10;dashed=0;fillColor=none;gradientColor=none;strokeWidth=2;" parent="1" vertex="1">
          <mxGeometry x="292.5" y="340" width="900" height="780" as="geometry" />
        </mxCell>
        <mxCell id="ibBu3tWBld4mr-qCmF8P-3" value="" style="rounded=1;arcSize=10;dashed=1;fillColor=none;gradientColor=none;dashPattern=8 3 1 3;strokeWidth=2;" parent="1" vertex="1">
          <mxGeometry x="612.5" y="785" width="480" height="125" as="geometry" />
        </mxCell>
        <mxCell id="ibBu3tWBld4mr-qCmF8P-4" value="" style="rounded=1;arcSize=10;dashed=1;fillColor=none;gradientColor=none;dashPattern=8 3 1 3;strokeWidth=2;" parent="1" vertex="1">
          <mxGeometry x="640" y="530" width="432.5" height="87" as="geometry" />
        </mxCell>
        <mxCell id="ibBu3tWBld4mr-qCmF8P-5" value="" style="rounded=1;arcSize=10;dashed=1;strokeColor=#F59D56;fillColor=none;gradientColor=none;dashPattern=8 4;strokeWidth=2;" parent="1" vertex="1">
          <mxGeometry x="332.5" y="400" width="460" height="680" as="geometry" />
        </mxCell>
        <mxCell id="ibBu3tWBld4mr-qCmF8P-6" value="" style="rounded=1;arcSize=10;dashed=0;fillColor=none;gradientColor=none;strokeWidth=2;" parent="1" vertex="1">
          <mxGeometry x="592.5" y="440" width="160" height="200" as="geometry" />
        </mxCell>
        <mxCell id="ibBu3tWBld4mr-qCmF8P-7" value="" style="outlineConnect=0;dashed=0;verticalLabelPosition=bottom;verticalAlign=top;align=center;html=1;shape=mxgraph.aws3.internet_gateway;fillColor=#F58536;gradientColor=none;" parent="1" vertex="1">
          <mxGeometry x="1074.5" y="315" width="40" height="40" as="geometry" />
        </mxCell>
        <mxCell id="ibBu3tWBld4mr-qCmF8P-8" value="" style="outlineConnect=0;dashed=0;verticalLabelPosition=bottom;verticalAlign=top;align=center;html=1;shape=mxgraph.aws3.vpc_nat_gateway;fillColor=#F58534;gradientColor=none;" parent="1" vertex="1">
          <mxGeometry x="632.5" y="477.5" width="40" height="40" as="geometry" />
        </mxCell>
        <mxCell id="ibBu3tWBld4mr-qCmF8P-9" value="" style="dashed=0;html=1;shape=mxgraph.aws3.virtual_private_cloud;fillColor=#F58536;gradientColor=none;dashed=0;" parent="1" vertex="1">
          <mxGeometry x="387.5" y="315" width="52" height="36" as="geometry" />
        </mxCell>
        <mxCell id="ibBu3tWBld4mr-qCmF8P-10" value="" style="rounded=1;arcSize=10;dashed=1;strokeColor=#F59D56;fillColor=none;gradientColor=none;dashPattern=8 4;strokeWidth=2;" parent="1" vertex="1">
          <mxGeometry x="912.5" y="400" width="240" height="680" as="geometry" />
        </mxCell>
        <mxCell id="ibBu3tWBld4mr-qCmF8P-11" value="" style="dashed=0;html=1;shape=mxgraph.aws3.permissions;fillColor=#D9A741;gradientColor=none;dashed=0;" parent="1" vertex="1">
          <mxGeometry x="608.5" y="420" width="30" height="30" as="geometry" />
        </mxCell>
        <mxCell id="ibBu3tWBld4mr-qCmF8P-12" value="" style="rounded=1;arcSize=10;dashed=0;fillColor=none;gradientColor=none;strokeWidth=2;" parent="1" vertex="1">
          <mxGeometry x="952.5" y="440" width="160" height="200" as="geometry" />
        </mxCell>
        <mxCell id="ibBu3tWBld4mr-qCmF8P-13" value="" style="dashed=0;html=1;shape=mxgraph.aws3.permissions;fillColor=#D9A741;gradientColor=none;dashed=0;" parent="1" vertex="1">
          <mxGeometry x="972.5" y="420" width="30" height="30" as="geometry" />
        </mxCell>
        <mxCell id="ibBu3tWBld4mr-qCmF8P-14" value="" style="rounded=1;arcSize=10;dashed=0;fillColor=none;gradientColor=none;strokeWidth=2;" parent="1" vertex="1">
          <mxGeometry x="592.5" y="720" width="160" height="340" as="geometry" />
        </mxCell>
        <mxCell id="ibBu3tWBld4mr-qCmF8P-15" value="" style="dashed=0;html=1;shape=mxgraph.aws3.permissions;fillColor=#D9A741;gradientColor=none;dashed=0;" parent="1" vertex="1">
          <mxGeometry x="608.5" y="700" width="30" height="30" as="geometry" />
        </mxCell>
        <mxCell id="ibBu3tWBld4mr-qCmF8P-16" value="" style="rounded=1;arcSize=10;dashed=0;fillColor=none;gradientColor=none;strokeWidth=2;" parent="1" vertex="1">
          <mxGeometry x="950.5" y="720" width="164" height="320" as="geometry" />
        </mxCell>
        <mxCell id="ibBu3tWBld4mr-qCmF8P-17" value="" style="dashed=0;html=1;shape=mxgraph.aws3.permissions;fillColor=#D9A741;gradientColor=none;dashed=0;" parent="1" vertex="1">
          <mxGeometry x="970.5" y="700" width="30" height="30" as="geometry" />
        </mxCell>
        <mxCell id="ibBu3tWBld4mr-qCmF8P-18" value="" style="outlineConnect=0;dashed=0;verticalLabelPosition=bottom;verticalAlign=top;align=center;html=1;shape=mxgraph.aws3.vpc_nat_gateway;fillColor=#F58534;gradientColor=none;" parent="1" vertex="1">
          <mxGeometry x="1032.5" y="480" width="40" height="40" as="geometry" />
        </mxCell>
        <mxCell id="ibBu3tWBld4mr-qCmF8P-21" value="" style="outlineConnect=0;dashed=0;verticalLabelPosition=bottom;verticalAlign=top;align=center;html=1;shape=mxgraph.aws3.application_load_balancer;fillColor=#F58534;gradientColor=none;" parent="1" vertex="1">
          <mxGeometry x="834.5" y="400" width="40" height="40" as="geometry" />
        </mxCell>
        <mxCell id="ibBu3tWBld4mr-qCmF8P-22" value="" style="outlineConnect=0;dashed=0;verticalLabelPosition=bottom;verticalAlign=top;align=center;html=1;shape=mxgraph.aws3.application_load_balancer;fillColor=#F58534;gradientColor=none;" parent="1" vertex="1">
          <mxGeometry x="832.5" y="640" width="40" height="40" as="geometry" />
        </mxCell>
        <mxCell id="ibBu3tWBld4mr-qCmF8P-23" value="" style="endArrow=classic;html=1;exitX=0.145;exitY=0.855;exitDx=0;exitDy=0;exitPerimeter=0;entryX=0.5;entryY=0;entryDx=0;entryDy=0;entryPerimeter=0;strokeWidth=2;fillColor=#dae8fc;strokeColor=#6c8ebf;" parent="1" source="ibBu3tWBld4mr-qCmF8P-21" edge="1" target="ibBu3tWBld4mr-qCmF8P-76">
          <mxGeometry width="50" height="50" relative="1" as="geometry">
            <mxPoint x="832.5" y="500" as="sourcePoint" />
            <mxPoint x="692.5" y="560" as="targetPoint" />
          </mxGeometry>
        </mxCell>
        <mxCell id="ibBu3tWBld4mr-qCmF8P-24" value="" style="endArrow=classic;html=1;exitX=0.855;exitY=0.855;exitDx=0;exitDy=0;exitPerimeter=0;entryX=0.5;entryY=0;entryDx=0;entryDy=0;entryPerimeter=0;strokeWidth=2;fillColor=#dae8fc;strokeColor=#6c8ebf;" parent="1" edge="1">
          <mxGeometry width="50" height="50" relative="1" as="geometry">
            <mxPoint x="868.7" y="423.20000000000005" as="sourcePoint" />
            <mxPoint x="1012.5" y="549" as="targetPoint" />
          </mxGeometry>
        </mxCell>
        <mxCell id="ibBu3tWBld4mr-qCmF8P-25" value="" style="endArrow=classic;html=1;exitX=0.145;exitY=0.855;exitDx=0;exitDy=0;exitPerimeter=0;entryX=1;entryY=0;entryDx=0;entryDy=0;strokeWidth=2;fillColor=#dae8fc;strokeColor=#6c8ebf;entryPerimeter=0;" parent="1" source="ibBu3tWBld4mr-qCmF8P-22" target="ibBu3tWBld4mr-qCmF8P-66" edge="1">
          <mxGeometry width="50" height="50" relative="1" as="geometry">
            <mxPoint x="522.5" y="1110" as="sourcePoint" />
            <mxPoint x="681.5" y="822" as="targetPoint" />
          </mxGeometry>
        </mxCell>
        <mxCell id="ibBu3tWBld4mr-qCmF8P-26" value="" style="endArrow=classic;html=1;exitX=0.855;exitY=0.855;exitDx=0;exitDy=0;exitPerimeter=0;entryX=0;entryY=0;entryDx=0;entryDy=0;entryPerimeter=0;strokeWidth=2;fillColor=#dae8fc;strokeColor=#6c8ebf;" parent="1" source="ibBu3tWBld4mr-qCmF8P-22" target="ibBu3tWBld4mr-qCmF8P-69" edge="1">
          <mxGeometry width="50" height="50" relative="1" as="geometry">
            <mxPoint x="822.5" y="760" as="sourcePoint" />
            <mxPoint x="1020.5" y="824.5" as="targetPoint" />
          </mxGeometry>
        </mxCell>
        <mxCell id="ibBu3tWBld4mr-qCmF8P-27" value="" style="endArrow=classic;html=1;strokeWidth=2;fillColor=#dae8fc;strokeColor=#6c8ebf;" parent="1" target="ibBu3tWBld4mr-qCmF8P-21" edge="1">
          <mxGeometry width="50" height="50" relative="1" as="geometry">
            <mxPoint x="854.5" y="310" as="sourcePoint" />
            <mxPoint x="572.5" y="1060" as="targetPoint" />
          </mxGeometry>
        </mxCell>
        <mxCell id="ibBu3tWBld4mr-qCmF8P-28" value="" style="ellipse;shape=cloud;whiteSpace=wrap;html=1;" parent="1" vertex="1">
          <mxGeometry x="792.5" y="233" width="120" height="80" as="geometry" />
        </mxCell>
        <mxCell id="ibBu3tWBld4mr-qCmF8P-29" value="" style="endArrow=classic;html=1;strokeWidth=2;exitX=0.5;exitY=1;exitDx=0;exitDy=0;exitPerimeter=0;entryX=0;entryY=0.5;entryDx=0;entryDy=0;entryPerimeter=0;fillColor=#dae8fc;strokeColor=#6c8ebf;" parent="1" target="ibBu3tWBld4mr-qCmF8P-22" edge="1" source="ibBu3tWBld4mr-qCmF8P-76">
          <mxGeometry width="50" height="50" relative="1" as="geometry">
            <mxPoint x="692.5" y="600" as="sourcePoint" />
            <mxPoint x="692.5" y="650" as="targetPoint" />
          </mxGeometry>
        </mxCell>
        <mxCell id="ibBu3tWBld4mr-qCmF8P-30" value="" style="endArrow=classic;html=1;strokeWidth=2;exitX=0.5;exitY=1;exitDx=0;exitDy=0;exitPerimeter=0;entryX=1;entryY=0.5;entryDx=0;entryDy=0;entryPerimeter=0;fillColor=#dae8fc;strokeColor=#6c8ebf;" parent="1" edge="1">
          <mxGeometry width="50" height="50" relative="1" as="geometry">
            <mxPoint x="1012.5" y="589" as="sourcePoint" />
            <mxPoint x="872.5" y="649" as="targetPoint" />
          </mxGeometry>
        </mxCell>
        <mxCell id="ibBu3tWBld4mr-qCmF8P-31" value="" style="endArrow=classic;startArrow=classic;html=1;strokeWidth=2;fillColor=#e1d5e7;strokeColor=#9673a6;entryX=0;entryY=0.5;entryDx=0;entryDy=0;entryPerimeter=0;" parent="1" source="ibBu3tWBld4mr-qCmF8P-71" target="ibBu3tWBld4mr-qCmF8P-66" edge="1">
          <mxGeometry width="50" height="50" relative="1" as="geometry">
            <mxPoint x="650" y="975" as="sourcePoint" />
            <mxPoint x="654.5" y="832" as="targetPoint" />
            <Array as="points">
              <mxPoint x="602.5" y="975" />
              <mxPoint x="602.5" y="832" />
            </Array>
          </mxGeometry>
        </mxCell>
        <mxCell id="ibBu3tWBld4mr-qCmF8P-32" value="" style="endArrow=classic;startArrow=classic;html=1;strokeWidth=2;fillColor=#e1d5e7;strokeColor=#9673a6;exitX=1;exitY=0.22;exitDx=0;exitDy=0;exitPerimeter=0;entryX=0.997;entryY=0.601;entryDx=0;entryDy=0;entryPerimeter=0;" parent="1" target="ibBu3tWBld4mr-qCmF8P-69" edge="1">
          <mxGeometry width="50" height="50" relative="1" as="geometry">
            <mxPoint x="728.5" y="960.22" as="sourcePoint" />
            <mxPoint x="1047.5" y="834.5" as="targetPoint" />
            <Array as="points">
              <mxPoint x="782.5" y="930" />
              <mxPoint x="1102.5" y="930" />
              <mxPoint x="1102.5" y="835" />
            </Array>
          </mxGeometry>
        </mxCell>
        <mxCell id="ibBu3tWBld4mr-qCmF8P-33" value="" style="endArrow=classic;startArrow=classic;html=1;strokeWidth=2;dashed=1;fillColor=#f5f5f5;strokeColor=#666666;entryX=0;entryY=0.5;entryDx=0;entryDy=0;entryPerimeter=0;" parent="1" source="ibBu3tWBld4mr-qCmF8P-71" target="ibBu3tWBld4mr-qCmF8P-73" edge="1">
          <mxGeometry width="50" height="50" relative="1" as="geometry">
            <mxPoint x="728.5" y="974.5" as="sourcePoint" />
            <mxPoint x="980.5" y="974.5" as="targetPoint" />
          </mxGeometry>
        </mxCell>
        <mxCell id="ibBu3tWBld4mr-qCmF8P-34" value="public_subnet_1" style="text;html=1;strokeColor=none;fillColor=none;align=center;verticalAlign=middle;whiteSpace=wrap;rounded=0;" parent="1" vertex="1">
          <mxGeometry x="670.5" y="416" width="40" height="20" as="geometry" />
        </mxCell>
        <mxCell id="ibBu3tWBld4mr-qCmF8P-35" value="public_subnet_2" style="text;html=1;strokeColor=none;fillColor=none;align=center;verticalAlign=middle;whiteSpace=wrap;rounded=0;" parent="1" vertex="1">
          <mxGeometry x="1034.5" y="416" width="40" height="20" as="geometry" />
        </mxCell>
        <mxCell id="ibBu3tWBld4mr-qCmF8P-36" value="private_subnet_1" style="text;html=1;strokeColor=none;fillColor=none;align=center;verticalAlign=middle;whiteSpace=wrap;rounded=0;" parent="1" vertex="1">
          <mxGeometry x="670.5" y="695" width="40" height="20" as="geometry" />
        </mxCell>
        <mxCell id="ibBu3tWBld4mr-qCmF8P-37" value="private_subnet_2" style="text;html=1;strokeColor=none;fillColor=none;align=center;verticalAlign=middle;whiteSpace=wrap;rounded=0;" parent="1" vertex="1">
          <mxGeometry x="1035.5" y="695" width="40" height="20" as="geometry" />
        </mxCell>
        <mxCell id="ibBu3tWBld4mr-qCmF8P-38" value="" style="rounded=1;arcSize=10;dashed=0;fillColor=none;gradientColor=none;strokeWidth=2;" parent="1" vertex="1">
          <mxGeometry x="372.5" y="440" width="160" height="120" as="geometry" />
        </mxCell>
        <mxCell id="ibBu3tWBld4mr-qCmF8P-39" value="" style="dashed=0;html=1;shape=mxgraph.aws3.permissions;fillColor=#D9A741;gradientColor=none;dashed=0;" parent="1" vertex="1">
          <mxGeometry x="387.5" y="416" width="30" height="30" as="geometry" />
        </mxCell>
        <mxCell id="ibBu3tWBld4mr-qCmF8P-40" value="bastion_subnet" style="text;html=1;strokeColor=none;fillColor=none;align=center;verticalAlign=middle;whiteSpace=wrap;rounded=0;" parent="1" vertex="1">
          <mxGeometry x="451.5" y="415" width="40" height="20" as="geometry" />
        </mxCell>
        <mxCell id="ibBu3tWBld4mr-qCmF8P-41" value="EC2" style="outlineConnect=0;dashed=0;verticalLabelPosition=middle;verticalAlign=middle;align=center;html=1;shape=mxgraph.aws3.instance;fillColor=#F58534;gradientColor=none;labelPosition=center;" parent="1" vertex="1">
          <mxGeometry x="432.5" y="480" width="40" height="40" as="geometry" />
        </mxCell>
        <mxCell id="ibBu3tWBld4mr-qCmF8P-42" value="igw" style="text;html=1;strokeColor=none;fillColor=none;align=center;verticalAlign=middle;whiteSpace=wrap;rounded=0;" parent="1" vertex="1">
          <mxGeometry x="1112.5" y="313" width="40" height="20" as="geometry" />
        </mxCell>
        <mxCell id="ibBu3tWBld4mr-qCmF8P-43" value="nat_gw_1" style="text;html=1;strokeColor=none;fillColor=none;align=center;verticalAlign=middle;whiteSpace=wrap;rounded=0;" parent="1" vertex="1">
          <mxGeometry x="686.5" y="487.5" width="40" height="20" as="geometry" />
        </mxCell>
        <mxCell id="ibBu3tWBld4mr-qCmF8P-44" value="nat_gw_2" style="text;html=1;strokeColor=none;fillColor=none;align=center;verticalAlign=middle;whiteSpace=wrap;rounded=0;" parent="1" vertex="1">
          <mxGeometry x="976.5" y="490" width="40" height="20" as="geometry" />
        </mxCell>
        <mxCell id="ibBu3tWBld4mr-qCmF8P-45" value="presentation_asg" style="text;html=1;strokeColor=none;fillColor=none;align=center;verticalAlign=middle;whiteSpace=wrap;rounded=0;" parent="1" vertex="1">
          <mxGeometry x="835.5" y="547" width="40" height="20" as="geometry" />
        </mxCell>
        <mxCell id="ibBu3tWBld4mr-qCmF8P-46" value="application_asg" style="text;html=1;strokeColor=none;fillColor=none;align=center;verticalAlign=middle;whiteSpace=wrap;rounded=0;" parent="1" vertex="1">
          <mxGeometry x="832.5" y="789" width="40" height="20" as="geometry" />
        </mxCell>
        <mxCell id="ibBu3tWBld4mr-qCmF8P-47" value="presentation_alb" style="text;html=1;strokeColor=none;fillColor=none;align=center;verticalAlign=middle;whiteSpace=wrap;rounded=0;" parent="1" vertex="1">
          <mxGeometry x="833.5" y="462" width="40" height="20" as="geometry" />
        </mxCell>
        <mxCell id="ibBu3tWBld4mr-qCmF8P-48" value="application_alb" style="text;html=1;" parent="1" vertex="1">
          <mxGeometry x="810.5" y="700" width="110" height="30" as="geometry" />
        </mxCell>
        <mxCell id="ibBu3tWBld4mr-qCmF8P-49" value="&lt;span style=&quot;color: rgb(36 , 41 , 46) ; font-family: , &amp;#34;consolas&amp;#34; , &amp;#34;liberation mono&amp;#34; , &amp;#34;menlo&amp;#34; , monospace ; white-space: pre ; background-color: rgb(255 , 255 , 255)&quot;&gt;availability_zone_a&lt;/span&gt;" style="text;html=1;strokeColor=none;fillColor=none;align=center;verticalAlign=middle;whiteSpace=wrap;rounded=0;" parent="1" vertex="1">
          <mxGeometry x="400.5" y="376" width="40" height="20" as="geometry" />
        </mxCell>
        <mxCell id="ibBu3tWBld4mr-qCmF8P-50" value="&lt;span style=&quot;color: rgb(36 , 41 , 46) ; font-family: , &amp;#34;consolas&amp;#34; , &amp;#34;liberation mono&amp;#34; , &amp;#34;menlo&amp;#34; , monospace ; white-space: pre ; background-color: rgb(255 , 255 , 255)&quot;&gt;availability_zone_b&lt;/span&gt;" style="text;html=1;strokeColor=none;fillColor=none;align=center;verticalAlign=middle;whiteSpace=wrap;rounded=0;" parent="1" vertex="1">
          <mxGeometry x="1042.5" y="376" width="40" height="20" as="geometry" />
        </mxCell>
        <mxCell id="ibBu3tWBld4mr-qCmF8P-51" value="Document DB (Mongo Compatibility)" style="text;html=1;strokeColor=none;fillColor=none;align=center;verticalAlign=middle;whiteSpace=wrap;rounded=0;" parent="1" vertex="1">
          <mxGeometry x="632.75" y="1020" width="90" height="20" as="geometry" />
        </mxCell>
        <mxCell id="ibBu3tWBld4mr-qCmF8P-55" value="UAML" style="text;html=1;strokeColor=none;fillColor=none;align=center;verticalAlign=middle;whiteSpace=wrap;rounded=0;" parent="1" vertex="1">
          <mxGeometry x="649.25" y="860" width="46.5" height="9" as="geometry" />
        </mxCell>
        <mxCell id="ibBu3tWBld4mr-qCmF8P-59" value="Demo App" style="text;html=1;strokeColor=none;fillColor=none;align=center;verticalAlign=middle;whiteSpace=wrap;rounded=0;fontStyle=1;fontSize=21;" parent="1" vertex="1">
          <mxGeometry x="290" y="210" width="390" height="20" as="geometry" />
        </mxCell>
        <mxCell id="ibBu3tWBld4mr-qCmF8P-65" value="bastion" style="text;html=1;strokeColor=none;fillColor=none;align=center;verticalAlign=middle;whiteSpace=wrap;rounded=0;fontSize=12;" parent="1" vertex="1">
          <mxGeometry x="432.5" y="525" width="40" height="20" as="geometry" />
        </mxCell>
        <mxCell id="ibBu3tWBld4mr-qCmF8P-66" value="" style="sketch=0;points=[[0,0,0],[0.25,0,0],[0.5,0,0],[0.75,0,0],[1,0,0],[0,1,0],[0.25,1,0],[0.5,1,0],[0.75,1,0],[1,1,0],[0,0.25,0],[0,0.5,0],[0,0.75,0],[1,0.25,0],[1,0.5,0],[1,0.75,0]];outlineConnect=0;fontColor=#232F3E;gradientColor=#F78E04;gradientDirection=north;fillColor=#D05C17;strokeColor=#ffffff;dashed=0;verticalLabelPosition=bottom;verticalAlign=top;align=center;html=1;fontSize=12;fontStyle=0;aspect=fixed;shape=mxgraph.aws4.resourceIcon;resIcon=mxgraph.aws4.fargate;" parent="1" vertex="1">
          <mxGeometry x="653.5" y="813.5" width="38" height="36" as="geometry" />
        </mxCell>
        <mxCell id="ibBu3tWBld4mr-qCmF8P-69" value="" style="sketch=0;points=[[0,0,0],[0.25,0,0],[0.5,0,0],[0.75,0,0],[1,0,0],[0,1,0],[0.25,1,0],[0.5,1,0],[0.75,1,0],[1,1,0],[0,0.25,0],[0,0.5,0],[0,0.75,0],[1,0.25,0],[1,0.5,0],[1,0.75,0]];outlineConnect=0;fontColor=#232F3E;gradientColor=#F78E04;gradientDirection=north;fillColor=#D05C17;strokeColor=#ffffff;dashed=0;verticalLabelPosition=bottom;verticalAlign=top;align=center;html=1;fontSize=12;fontStyle=0;aspect=fixed;shape=mxgraph.aws4.resourceIcon;resIcon=mxgraph.aws4.fargate;" parent="1" vertex="1">
          <mxGeometry x="1002.5" y="813.5" width="38" height="36" as="geometry" />
        </mxCell>
        <mxCell id="ibBu3tWBld4mr-qCmF8P-70" value="UAML" style="text;html=1;strokeColor=none;fillColor=none;align=center;verticalAlign=middle;whiteSpace=wrap;rounded=0;" parent="1" vertex="1">
          <mxGeometry x="997.25" y="860" width="46.5" height="9" as="geometry" />
        </mxCell>
        <mxCell id="ibBu3tWBld4mr-qCmF8P-71" value="" style="sketch=0;points=[[0,0,0],[0.25,0,0],[0.5,0,0],[0.75,0,0],[1,0,0],[0,1,0],[0.25,1,0],[0.5,1,0],[0.75,1,0],[1,1,0],[0,0.25,0],[0,0.5,0],[0,0.75,0],[1,0.25,0],[1,0.5,0],[1,0.75,0]];outlineConnect=0;fontColor=#232F3E;gradientColor=#4D72F3;gradientDirection=north;fillColor=#3334B9;strokeColor=#ffffff;dashed=0;verticalLabelPosition=bottom;verticalAlign=top;align=center;html=1;fontSize=12;fontStyle=0;aspect=fixed;shape=mxgraph.aws4.resourceIcon;resIcon=mxgraph.aws4.documentdb_with_mongodb_compatibility;" parent="1" vertex="1">
          <mxGeometry x="656" y="950.7" width="43.5" height="49.3" as="geometry" />
        </mxCell>
        <mxCell id="ibBu3tWBld4mr-qCmF8P-73" value="Replica" style="sketch=0;points=[[0,0,0],[0.25,0,0],[0.5,0,0],[0.75,0,0],[1,0,0],[0,1,0],[0.25,1,0],[0.5,1,0],[0.75,1,0],[1,1,0],[0,0.25,0],[0,0.5,0],[0,0.75,0],[1,0.25,0],[1,0.5,0],[1,0.75,0]];outlineConnect=0;fontColor=#232F3E;gradientColor=#999999;gradientDirection=north;fillColor=#3334B9;strokeColor=#ffffff;dashed=0;verticalLabelPosition=bottom;verticalAlign=top;align=center;html=1;fontSize=12;fontStyle=0;aspect=fixed;shape=mxgraph.aws4.resourceIcon;resIcon=mxgraph.aws4.documentdb_with_mongodb_compatibility;" parent="1" vertex="1">
          <mxGeometry x="999" y="950.7" width="43.5" height="49.3" as="geometry" />
        </mxCell>
        <mxCell id="ibBu3tWBld4mr-qCmF8P-76" value="" style="sketch=0;points=[[0,0,0],[0.25,0,0],[0.5,0,0],[0.75,0,0],[1,0,0],[0,1,0],[0.25,1,0],[0.5,1,0],[0.75,1,0],[1,1,0],[0,0.25,0],[0,0.5,0],[0,0.75,0],[1,0.25,0],[1,0.5,0],[1,0.75,0]];outlineConnect=0;fontColor=#232F3E;gradientColor=#F78E04;gradientDirection=north;fillColor=#D05C17;strokeColor=#ffffff;dashed=0;verticalLabelPosition=bottom;verticalAlign=top;align=center;html=1;fontSize=12;fontStyle=0;aspect=fixed;shape=mxgraph.aws4.resourceIcon;resIcon=mxgraph.aws4.fargate;" parent="1" vertex="1">
          <mxGeometry x="670.5" y="552" width="38" height="36" as="geometry" />
        </mxCell>
        <mxCell id="ibBu3tWBld4mr-qCmF8P-78" value="" style="sketch=0;points=[[0,0,0],[0.25,0,0],[0.5,0,0],[0.75,0,0],[1,0,0],[0,1,0],[0.25,1,0],[0.5,1,0],[0.75,1,0],[1,1,0],[0,0.25,0],[0,0.5,0],[0,0.75,0],[1,0.25,0],[1,0.5,0],[1,0.75,0]];outlineConnect=0;fontColor=#232F3E;gradientColor=#F78E04;gradientDirection=north;fillColor=#D05C17;strokeColor=#ffffff;dashed=0;verticalLabelPosition=bottom;verticalAlign=top;align=center;html=1;fontSize=12;fontStyle=0;aspect=fixed;shape=mxgraph.aws4.resourceIcon;resIcon=mxgraph.aws4.fargate;" parent="1" vertex="1">
          <mxGeometry x="996.5" y="550" width="38" height="36" as="geometry" />
        </mxCell>
        <mxCell id="ibBu3tWBld4mr-qCmF8P-79" value="" style="sketch=0;points=[[0,0,0],[0.25,0,0],[0.5,0,0],[0.75,0,0],[1,0,0],[0,1,0],[0.25,1,0],[0.5,1,0],[0.75,1,0],[1,1,0],[0,0.25,0],[0,0.5,0],[0,0.75,0],[1,0.25,0],[1,0.5,0],[1,0.75,0]];outlineConnect=0;fontColor=#232F3E;gradientColor=#945DF2;gradientDirection=north;fillColor=#5A30B5;strokeColor=#ffffff;dashed=0;verticalLabelPosition=bottom;verticalAlign=top;align=center;html=1;fontSize=12;fontStyle=0;aspect=fixed;shape=mxgraph.aws4.resourceIcon;resIcon=mxgraph.aws4.route_53;" parent="1" vertex="1">
          <mxGeometry x="90" y="394" width="58" height="58" as="geometry" />
        </mxCell>
        <mxCell id="ibBu3tWBld4mr-qCmF8P-80" value="" style="sketch=0;points=[[0,0,0],[0.25,0,0],[0.5,0,0],[0.75,0,0],[1,0,0],[0,1,0],[0.25,1,0],[0.5,1,0],[0.75,1,0],[1,1,0],[0,0.25,0],[0,0.5,0],[0,0.75,0],[1,0.25,0],[1,0.5,0],[1,0.75,0]];outlineConnect=0;fontColor=#232F3E;gradientColor=#F54749;gradientDirection=north;fillColor=#C7131F;strokeColor=#ffffff;dashed=0;verticalLabelPosition=bottom;verticalAlign=top;align=center;html=1;fontSize=12;fontStyle=0;aspect=fixed;shape=mxgraph.aws4.resourceIcon;resIcon=mxgraph.aws4.certificate_manager_3;" parent="1" vertex="1">
          <mxGeometry x="90" y="510" width="58" height="58" as="geometry" />
        </mxCell>
        <mxCell id="ibBu3tWBld4mr-qCmF8P-81" value="" style="sketch=0;points=[[0,0,0],[0.25,0,0],[0.5,0,0],[0.75,0,0],[1,0,0],[0,1,0],[0.25,1,0],[0.5,1,0],[0.75,1,0],[1,1,0],[0,0.25,0],[0,0.5,0],[0,0.75,0],[1,0.25,0],[1,0.5,0],[1,0.75,0]];outlineConnect=0;fontColor=#232F3E;gradientColor=#F54749;gradientDirection=north;fillColor=#C7131F;strokeColor=#ffffff;dashed=0;verticalLabelPosition=bottom;verticalAlign=top;align=center;html=1;fontSize=12;fontStyle=0;aspect=fixed;shape=mxgraph.aws4.resourceIcon;resIcon=mxgraph.aws4.cognito;" parent="1" vertex="1">
          <mxGeometry x="90" y="642" width="58" height="58" as="geometry" />
        </mxCell>
        <mxCell id="2axJj9LPkHQCmmJJg-_r-1" value="TSP Portal" style="text;html=1;strokeColor=none;fillColor=none;align=center;verticalAlign=middle;whiteSpace=wrap;rounded=0;" vertex="1" parent="1">
          <mxGeometry x="655" y="598" width="70.5" height="9" as="geometry" />
        </mxCell>
        <mxCell id="2axJj9LPkHQCmmJJg-_r-2" value="TSP Portal" style="text;html=1;strokeColor=none;fillColor=none;align=center;verticalAlign=middle;whiteSpace=wrap;rounded=0;" vertex="1" parent="1">
          <mxGeometry x="980.25" y="598" width="70.5" height="9" as="geometry" />
        </mxCell>
      </root>
    </mxGraphModel>
  </diagram>
</mxfile>
